<svg xmlns="http://www.w3.org/2000/svg" xmlns:xlink="http://www.w3.org/1999/xlink" width="1920" zoomAndPan="magnify" viewBox="0 0 1440 959.999988" height="1280" preserveAspectRatio="xMidYMid meet" version="1.0"><defs><clipPath id="id1"><path d="M 70 42 L 228 42 L 228 130 L 70 130 Z M 70 42 " clip-rule="nonzero"/></clipPath><clipPath id="id2"><path d="M 57.871094 92.929688 L 217.75 28.164062 L 236.335938 74.042969 L 76.457031 138.808594 Z M 57.871094 92.929688 " clip-rule="nonzero"/></clipPath><clipPath id="id3"><path d="M 57.871094 92.929688 L 217.75 28.164062 L 236.335938 74.042969 L 76.457031 138.808594 Z M 57.871094 92.929688 " clip-rule="nonzero"/></clipPath><clipPath id="id4"><path d="M 0 214 L 136 214 L 136 314 L 0 314 Z M 0 214 " clip-rule="nonzero"/></clipPath><clipPath id="id5"><path d="M 119.816406 332.570312 L -29.25 245.765625 L -4.339844 202.988281 L 144.726562 289.792969 Z M 119.816406 332.570312 " clip-rule="nonzero"/></clipPath><clipPath id="id6"><path d="M 119.816406 332.570312 L -29.25 245.765625 L -4.339844 202.988281 L 144.726562 289.792969 Z M 119.816406 332.570312 " clip-rule="nonzero"/></clipPath><clipPath id="id7"><path d="M 239 179 L 407 179 L 407 229 L 239 229 Z M 239 179 " clip-rule="nonzero"/></clipPath><clipPath id="id8"><path d="M 407.585938 232.488281 L 235.335938 223.183594 L 238.007812 173.757812 L 410.253906 183.0625 Z M 407.585938 232.488281 " clip-rule="nonzero"/></clipPath><clipPath id="id9"><path d="M 407.585938 232.488281 L 235.335938 223.183594 L 238.007812 173.757812 L 410.253906 183.0625 Z M 407.585938 232.488281 " clip-rule="nonzero"/></clipPath><clipPath id="id10"><path d="M 95 390 L 256 390 L 256 470 L 95 470 Z M 95 390 " clip-rule="nonzero"/></clipPath><clipPath id="id11"><path d="M 104.402344 374.886719 L 266.625 433.535156 L 249.796875 480.085938 L 87.570312 421.4375 Z M 104.402344 374.886719 " clip-rule="nonzero"/></clipPath><clipPath id="id12"><path d="M 104.402344 374.886719 L 266.625 433.535156 L 249.796875 480.085938 L 87.570312 421.4375 Z M 104.402344 374.886719 " clip-rule="nonzero"/></clipPath><clipPath id="id13"><path d="M 0 592 L 133 592 L 133 686 L 0 686 Z M 0 592 " clip-rule="nonzero"/></clipPath><clipPath id="id14"><path d="M 146.476562 628.683594 L -10.445312 700.316406 L -31.003906 655.289062 L 125.917969 583.652344 Z M 146.476562 628.683594 " clip-rule="nonzero"/></clipPath><clipPath id="id15"><path d="M 146.476562 628.683594 L -10.445312 700.316406 L -31.003906 655.289062 L 125.917969 583.652344 Z M 146.476562 628.683594 " clip-rule="nonzero"/></clipPath><clipPath id="id16"><path d="M 255 525 L 397 525 L 397 637 L 255 637 Z M 255 525 " clip-rule="nonzero"/></clipPath><clipPath id="id17"><path d="M 238.28125 606.503906 L 379.347656 507.226562 L 407.835938 547.707031 L 266.769531 646.984375 Z M 238.28125 606.503906 " clip-rule="nonzero"/></clipPath><clipPath id="id18"><path d="M 238.28125 606.503906 L 379.347656 507.226562 L 407.835938 547.707031 L 266.769531 646.984375 Z M 238.28125 606.503906 " clip-rule="nonzero"/></clipPath><clipPath id="id19"><path d="M 132 725 L 293 725 L 293 805 L 132 805 Z M 132 725 " clip-rule="nonzero"/></clipPath><clipPath id="id20"><path d="M 303.609375 764.292969 L 139.417969 817.175781 L 124.242188 770.058594 L 288.433594 717.175781 Z M 303.609375 764.292969 " clip-rule="nonzero"/></clipPath><clipPath id="id21"><path d="M 303.609375 764.292969 L 139.417969 817.175781 L 124.242188 770.058594 L 288.433594 717.175781 Z M 303.609375 764.292969 " clip-rule="nonzero"/></clipPath><clipPath id="id22"><path d="M 52 898 L 203 898 L 203 960 L 52 960 Z M 52 898 " clip-rule="nonzero"/></clipPath><clipPath id="id23"><path d="M 186.910156 1016.148438 L 37.84375 929.34375 L 62.75 886.566406 L 211.820312 973.371094 Z M 186.910156 1016.148438 " clip-rule="nonzero"/></clipPath><clipPath id="id24"><path d="M 186.910156 1016.148438 L 37.84375 929.34375 L 62.75 886.566406 L 211.820312 973.371094 Z M 186.910156 1016.148438 " clip-rule="nonzero"/></clipPath><clipPath id="id25"><path d="M 331 830 L 425 830 L 425 960 L 331 960 Z M 331 830 " clip-rule="nonzero"/></clipPath><clipPath id="id26"><path d="M 367.101562 817.089844 L 439.554688 973.636719 L 394.632812 994.429688 L 322.179688 837.882812 Z M 367.101562 817.089844 " clip-rule="nonzero"/></clipPath><clipPath id="id27"><path d="M 367.101562 817.089844 L 439.554688 973.636719 L 394.632812 994.429688 L 322.179688 837.882812 Z M 367.101562 817.089844 " clip-rule="nonzero"/></clipPath><clipPath id="id28"><path d="M 300.246094 53.097656 L 332 53.097656 L 332 83.847656 L 300.246094 83.847656 Z M 300.246094 53.097656 " clip-rule="nonzero"/></clipPath><clipPath id="id29"><path d="M 145 217.265625 L 176.992188 217.265625 L 176.992188 248 L 145 248 Z M 145 217.265625 " clip-rule="nonzero"/></clipPath><clipPath id="id30"><path d="M 332.46875 372 L 364.71875 372 L 364.71875 402.574219 L 332.46875 402.574219 Z M 332.46875 372 " clip-rule="nonzero"/></clipPath><clipPath id="id31"><path d="M 161 547 L 193 547 L 193 577.492188 L 161 577.492188 Z M 161 547 " clip-rule="nonzero"/></clipPath><clipPath id="id32"><path d="M 365 700.199219 L 396.941406 700.199219 L 396.941406 730.949219 L 365 730.949219 Z M 365 700.199219 " clip-rule="nonzero"/></clipPath><clipPath id="id33"><path d="M 57.578125 787 L 89.828125 787 L 89.828125 817 L 57.578125 817 Z M 57.578125 787 " clip-rule="nonzero"/></clipPath><clipPath id="id34"><path d="M 236 887 L 267.878906 887 L 267.878906 917 L 236 917 Z M 236 887 " clip-rule="nonzero"/></clipPath><clipPath id="id35"><path d="M 358 0 L 456 0 L 456 87 L 358 87 Z M 358 0 " clip-rule="nonzero"/></clipPath><clipPath id="id36"><path d="M 393.316406 -79.953125 L 471.476562 73.824219 L 427.347656 96.25 L 349.1875 -57.527344 Z M 393.316406 -79.953125 " clip-rule="nonzero"/></clipPath><clipPath id="id37"><path d="M 393.316406 -79.953125 L 471.476562 73.824219 L 427.347656 96.25 L 349.1875 -57.527344 Z M 393.316406 -79.953125 " clip-rule="nonzero"/></clipPath><clipPath id="id38"><path d="M 1260 871 L 1418 871 L 1418 960 L 1260 960 Z M 1260 871 " clip-rule="nonzero"/></clipPath><clipPath id="id39"><path d="M 1430.199219 908.453125 L 1270.320312 973.21875 L 1251.734375 927.34375 L 1411.613281 862.574219 Z M 1430.199219 908.453125 " clip-rule="nonzero"/></clipPath><clipPath id="id40"><path d="M 1430.199219 908.453125 L 1270.320312 973.21875 L 1251.734375 927.34375 L 1411.613281 862.574219 Z M 1430.199219 908.453125 " clip-rule="nonzero"/></clipPath><clipPath id="id41"><path d="M 1352 687 L 1440 687 L 1440 787 L 1352 787 Z M 1352 687 " clip-rule="nonzero"/></clipPath><clipPath id="id42"><path d="M 1368.253906 668.8125 L 1517.320312 755.617188 L 1492.410156 798.394531 L 1343.34375 711.589844 Z M 1368.253906 668.8125 " clip-rule="nonzero"/></clipPath><clipPath id="id43"><path d="M 1368.253906 668.8125 L 1517.320312 755.617188 L 1492.410156 798.394531 L 1343.34375 711.589844 Z M 1368.253906 668.8125 " clip-rule="nonzero"/></clipPath><clipPath id="id44"><path d="M 1081 773 L 1249 773 L 1249 823 L 1081 823 Z M 1081 773 " clip-rule="nonzero"/></clipPath><clipPath id="id45"><path d="M 1080.484375 768.894531 L 1252.734375 778.199219 L 1250.0625 827.628906 L 1077.816406 818.324219 Z M 1080.484375 768.894531 " clip-rule="nonzero"/></clipPath><clipPath id="id46"><path d="M 1080.484375 768.894531 L 1252.734375 778.199219 L 1250.0625 827.628906 L 1077.816406 818.324219 Z M 1080.484375 768.894531 " clip-rule="nonzero"/></clipPath><clipPath id="id47"><path d="M 1232 531 L 1394 531 L 1394 612 L 1232 612 Z M 1232 531 " clip-rule="nonzero"/></clipPath><clipPath id="id48"><path d="M 1383.667969 626.496094 L 1221.445312 567.847656 L 1238.273438 521.296875 L 1400.5 579.945312 Z M 1383.667969 626.496094 " clip-rule="nonzero"/></clipPath><clipPath id="id49"><path d="M 1383.667969 626.496094 L 1221.445312 567.847656 L 1238.273438 521.296875 L 1400.5 579.945312 Z M 1383.667969 626.496094 " clip-rule="nonzero"/></clipPath><clipPath id="id50"><path d="M 1355 316 L 1440 316 L 1440 409 L 1355 409 Z M 1355 316 " clip-rule="nonzero"/></clipPath><clipPath id="id51"><path d="M 1341.59375 372.699219 L 1498.519531 301.066406 L 1519.074219 346.097656 L 1362.152344 417.730469 Z M 1341.59375 372.699219 " clip-rule="nonzero"/></clipPath><clipPath id="id52"><path d="M 1341.59375 372.699219 L 1498.519531 301.066406 L 1519.074219 346.097656 L 1362.152344 417.730469 Z M 1341.59375 372.699219 " clip-rule="nonzero"/></clipPath><clipPath id="id53"><path d="M 1091 364 L 1233 364 L 1233 477 L 1091 477 Z M 1091 364 " clip-rule="nonzero"/></clipPath><clipPath id="id54"><path d="M 1249.789062 394.878906 L 1108.722656 494.15625 L 1080.234375 453.679688 L 1221.300781 354.398438 Z M 1249.789062 394.878906 " clip-rule="nonzero"/></clipPath><clipPath id="id55"><path d="M 1249.789062 394.878906 L 1108.722656 494.15625 L 1080.234375 453.679688 L 1221.300781 354.398438 Z M 1249.789062 394.878906 " clip-rule="nonzero"/></clipPath><clipPath id="id56"><path d="M 1195 196 L 1356 196 L 1356 276 L 1195 276 Z M 1195 196 " clip-rule="nonzero"/></clipPath><clipPath id="id57"><path d="M 1184.460938 237.09375 L 1348.652344 184.207031 L 1363.828125 231.324219 L 1199.636719 284.207031 Z M 1184.460938 237.09375 " clip-rule="nonzero"/></clipPath><clipPath id="id58"><path d="M 1184.460938 237.09375 L 1348.652344 184.207031 L 1363.828125 231.324219 L 1199.636719 284.207031 Z M 1184.460938 237.09375 " clip-rule="nonzero"/></clipPath><clipPath id="id59"><path d="M 1285 4 L 1436 4 L 1436 104 L 1285 104 Z M 1285 4 " clip-rule="nonzero"/></clipPath><clipPath id="id60"><path d="M 1301.160156 -14.765625 L 1450.226562 72.039062 L 1425.320312 114.816406 L 1276.25 28.011719 Z M 1301.160156 -14.765625 " clip-rule="nonzero"/></clipPath><clipPath id="id61"><path d="M 1301.160156 -14.765625 L 1450.226562 72.039062 L 1425.320312 114.816406 L 1276.25 28.011719 Z M 1301.160156 -14.765625 " clip-rule="nonzero"/></clipPath><clipPath id="id62"><path d="M 1063 16 L 1157 16 L 1157 171 L 1063 171 Z M 1063 16 " clip-rule="nonzero"/></clipPath><clipPath id="id63"><path d="M 1120.96875 184.292969 L 1048.515625 27.746094 L 1093.4375 6.953125 L 1165.890625 163.503906 Z M 1120.96875 184.292969 " clip-rule="nonzero"/></clipPath><clipPath id="id64"><path d="M 1120.96875 184.292969 L 1048.515625 27.746094 L 1093.4375 6.953125 L 1165.890625 163.503906 Z M 1120.96875 184.292969 " clip-rule="nonzero"/></clipPath><clipPath id="id65"><path d="M 1156 918 L 1187.824219 918 L 1187.824219 948 L 1156 948 Z M 1156 918 " clip-rule="nonzero"/></clipPath><clipPath id="id66"><path d="M 1311.082031 753.363281 L 1343 753.363281 L 1343 784 L 1311.082031 784 Z M 1311.082031 753.363281 " clip-rule="nonzero"/></clipPath><clipPath id="id67"><path d="M 1124 599 L 1155.601562 599 L 1155.601562 629.554688 L 1124 629.554688 Z M 1124 599 " clip-rule="nonzero"/></clipPath><clipPath id="id68"><path d="M 1295 424 L 1327 424 L 1327 454.632812 L 1295 454.632812 Z M 1295 424 " clip-rule="nonzero"/></clipPath><clipPath id="id69"><path d="M 1091.128906 270.429688 L 1123 270.429688 L 1123 301 L 1091.128906 301 Z M 1091.128906 270.429688 " clip-rule="nonzero"/></clipPath><clipPath id="id70"><path d="M 1398.242188 184 L 1430.492188 184 L 1430.492188 214.742188 L 1398.242188 214.742188 Z M 1398.242188 184 " clip-rule="nonzero"/></clipPath><clipPath id="id71"><path d="M 1220.191406 84 L 1252.441406 84 L 1252.441406 114.675781 L 1220.191406 114.675781 Z M 1220.191406 84 " clip-rule="nonzero"/></clipPath><clipPath id="id72"><path d="M 1034 909 L 1086 909 L 1086 960 L 1034 960 Z M 1034 909 " clip-rule="nonzero"/></clipPath><clipPath id="id73"><path d="M 1041.75 1080.671875 L 1030.640625 908.53125 L 1080.039062 905.34375 L 1091.148438 1077.484375 Z M 1041.75 1080.671875 " clip-rule="nonzero"/></clipPath><clipPath id="id74"><path d="M 1041.75 1080.671875 L 1030.640625 908.53125 L 1080.039062 905.34375 L 1091.148438 1077.484375 Z M 1041.75 1080.671875 " clip-rule="nonzero"/></clipPath></defs><rect x="-144" width="1728" fill="#ffffff" y="-95.999999" height="1151.999986" fill-opacity="1"/><rect x="-144" width="1728" fill="#ffffff" y="-95.999999" height="1151.999986" fill-opacity="1"/><rect x="-144" width="1728" fill="#f2e4d9" y="-95.999999" height="1151.999986" fill-opacity="1"/><g clip-path="url(#id1)"><g clip-path="url(#id2)"><g clip-path="url(#id3)"><path fill="#c197d2" d="M 99.882812 120.523438 C 100.835938 118.933594 105.398438 112.15625 107.292969 109.875 C 108.777344 108.082031 112.140625 105.234375 115.597656 104.375 C 119.339844 103.449219 122.996094 104.816406 124.398438 105.308594 C 127.667969 106.507812 130.992188 107.519531 134.375 108.34375 C 136.238281 108.773438 138.125 109.035156 140.035156 109.136719 C 141.945312 109.234375 143.851562 109.167969 145.75 108.933594 C 147.648438 108.699219 149.511719 108.304688 151.34375 107.742188 C 153.171875 107.183594 154.941406 106.472656 156.644531 105.601562 C 163.863281 101.808594 169.066406 95.871094 173.566406 89.179688 C 175.289062 86.617188 176.929688 84 178.730469 81.484375 C 180.210938 79.566406 181.894531 77.84375 183.773438 76.316406 C 186.296875 74.648438 189.050781 73.578125 192.035156 73.109375 C 197.792969 72.679688 205.179688 75 206.386719 75.480469 C 213.71875 78.414062 223.332031 75.179688 226.222656 67.445312 C 229.042969 59.910156 226.046875 50.804688 218.203125 47.648438 C 207.589844 43.410156 196.59375 40.871094 184.726562 43.175781 C 180.972656 43.875 177.359375 45.03125 173.894531 46.640625 C 170.429688 48.25 167.21875 50.261719 164.261719 52.679688 C 159.429688 56.710938 155.65625 61.652344 152.210938 66.847656 C 150.757812 69.039062 149.339844 71.257812 147.832031 73.390625 C 147.097656 74.421875 144.589844 77.449219 142.382812 78.152344 C 140.179688 78.855469 136.234375 77.449219 135.183594 77.0625 C 132.035156 75.917969 128.828125 74.972656 125.5625 74.226562 C 122.164062 73.542969 118.734375 73.328125 115.273438 73.582031 C 111.8125 73.835938 108.453125 74.550781 105.1875 75.726562 C 89.953125 80.894531 78.085938 94.722656 71.8125 109.449219 C 68.730469 116.707031 72.335938 126.429688 79.832031 129.246094 C 87.683594 132.148438 97.070312 125.207031 99.882812 120.523438 Z M 99.882812 120.523438 " fill-opacity="1" fill-rule="nonzero"/></g></g></g><g clip-path="url(#id4)"><g clip-path="url(#id5)"><g clip-path="url(#id6)"><path fill="#c197d2" d="M 115.925781 282.460938 C 114.089844 282.679688 105.933594 283.21875 102.96875 283.113281 C 100.644531 283.039062 96.335938 282.121094 93.539062 279.914062 C 90.519531 277.519531 89.359375 273.792969 88.890625 272.378906 C 87.839844 269.0625 86.605469 265.816406 85.1875 262.636719 C 84.386719 260.898438 83.4375 259.246094 82.347656 257.675781 C 81.257812 256.101562 80.039062 254.636719 78.691406 253.277344 C 77.34375 251.917969 75.890625 250.6875 74.328125 249.582031 C 72.765625 248.476562 71.121094 247.515625 69.390625 246.699219 C 61.972656 243.3125 54.089844 242.828125 46.046875 243.367188 C 42.964844 243.574219 39.890625 243.878906 36.800781 243.992188 C 34.375 243.996094 31.984375 243.71875 29.625 243.167969 C 26.761719 242.195312 24.234375 240.671875 22.035156 238.597656 C 18.171875 234.304688 15.484375 227.042969 15.125 225.792969 C 12.957031 218.199219 4.515625 212.574219 -3.367188 215.023438 C -11.054688 217.40625 -16.421875 225.347656 -14.117188 233.480469 C -10.976562 244.46875 -6.253906 254.71875 2.832031 262.695312 C 5.683594 265.238281 8.808594 267.382812 12.203125 269.140625 C 15.59375 270.894531 19.152344 272.203125 22.871094 273.066406 C 29.019531 274.421875 35.234375 274.375 41.453125 273.925781 C 44.074219 273.730469 46.699219 273.496094 49.308594 273.382812 C 50.574219 273.335938 54.503906 273.464844 56.410156 274.777344 C 58.3125 276.089844 59.613281 280.070312 59.953125 281.136719 C 60.976562 284.328125 62.191406 287.441406 63.597656 290.484375 C 65.136719 293.589844 67.066406 296.433594 69.382812 299.015625 C 71.703125 301.59375 74.324219 303.816406 77.253906 305.679688 C 90.664062 314.5625 108.863281 315.488281 124.347656 311.4375 C 131.976562 309.429688 137.457031 300.628906 135.097656 292.976562 C 132.585938 284.992188 121.351562 281.816406 115.925781 282.460938 Z M 115.925781 282.460938 " fill-opacity="1" fill-rule="nonzero"/></g></g></g><g clip-path="url(#id7)"><g clip-path="url(#id8)"><g clip-path="url(#id9)"><path fill="#c197d2" d="M 381.28125 189.660156 C 379.742188 190.695312 372.730469 194.890625 370.046875 196.152344 C 367.941406 197.144531 363.6875 198.289062 360.191406 197.597656 C 356.410156 196.847656 353.683594 194.058594 352.621094 193.015625 C 350.171875 190.542969 347.59375 188.214844 344.882812 186.03125 C 343.378906 184.851562 341.78125 183.808594 340.09375 182.90625 C 338.40625 182.007812 336.652344 181.257812 334.835938 180.664062 C 333.015625 180.066406 331.160156 179.632812 329.265625 179.363281 C 327.371094 179.089844 325.46875 178.984375 323.554688 179.046875 C 315.410156 179.414062 308.175781 182.578125 301.261719 186.722656 C 298.613281 188.3125 296.015625 189.984375 293.316406 191.496094 C 291.160156 192.601562 288.90625 193.449219 286.554688 194.03125 C 283.5625 194.46875 280.617188 194.265625 277.714844 193.421875 C 272.320312 191.363281 266.617188 186.128906 265.730469 185.175781 C 260.335938 179.40625 250.261719 178.25 244.359375 184.023438 C 238.601562 189.644531 237.445312 199.164062 243.207031 205.351562 C 251.011719 213.699219 259.890625 220.667969 271.609375 223.628906 C 275.308594 224.585938 279.066406 225.074219 282.886719 225.089844 C 286.707031 225.105469 290.46875 224.652344 294.175781 223.722656 C 300.261719 222.125 305.777344 219.25 311.105469 216.015625 C 313.347656 214.648438 315.578125 213.242188 317.847656 211.949219 C 318.953125 211.332031 322.507812 209.65625 324.804688 209.953125 C 327.097656 210.253906 330.070312 213.207031 330.855469 214.003906 C 333.222656 216.375 335.722656 218.59375 338.363281 220.65625 C 341.148438 222.722656 344.160156 224.375 347.402344 225.613281 C 350.640625 226.851562 353.988281 227.632812 357.441406 227.957031 C 373.429688 229.75 390.046875 222.277344 401.984375 211.613281 C 407.859375 206.351562 408.726562 196.015625 403.136719 190.285156 C 397.261719 184.320312 385.816406 186.613281 381.28125 189.660156 Z M 381.28125 189.660156 " fill-opacity="1" fill-rule="nonzero"/></g></g></g><g clip-path="url(#id10)"><g clip-path="url(#id11)"><g clip-path="url(#id12)"><path fill="#c197d2" d="M 117.21875 423.484375 C 118.988281 422.941406 126.914062 420.945312 129.847656 420.515625 C 132.148438 420.171875 136.554688 420.304688 139.703125 421.972656 C 143.101562 423.785156 144.910156 427.246094 145.625 428.550781 C 147.253906 431.625 149.054688 434.597656 151.019531 437.472656 C 152.117188 439.035156 153.34375 440.492188 154.699219 441.84375 C 156.054688 443.195312 157.515625 444.417969 159.085938 445.511719 C 160.65625 446.609375 162.308594 447.558594 164.042969 448.367188 C 165.777344 449.171875 167.570312 449.824219 169.417969 450.316406 C 177.324219 452.316406 185.164062 451.378906 192.980469 449.402344 C 195.976562 448.648438 198.945312 447.796875 201.964844 447.132812 C 204.347656 446.695312 206.75 446.535156 209.171875 446.65625 C 212.160156 447.101562 214.925781 448.144531 217.457031 449.789062 C 222.03125 453.320312 225.976562 459.980469 226.550781 461.144531 C 230.046875 468.226562 239.359375 472.246094 246.679688 468.421875 C 253.8125 464.703125 257.667969 455.921875 253.941406 448.335938 C 248.878906 438.089844 242.394531 428.851562 232.027344 422.636719 C 228.761719 420.648438 225.304688 419.097656 221.652344 417.976562 C 218 416.859375 214.265625 416.210938 210.449219 416.03125 C 204.160156 415.800781 198.050781 416.960938 192.015625 418.519531 C 189.472656 419.179688 186.933594 419.882812 184.386719 420.464844 C 183.152344 420.738281 179.261719 421.316406 177.152344 420.363281 C 175.039062 419.414062 173.046875 415.730469 172.523438 414.742188 C 170.945312 411.789062 169.191406 408.941406 167.261719 406.203125 C 165.1875 403.421875 162.78125 400.96875 160.039062 398.847656 C 157.292969 396.726562 154.3125 395.011719 151.101562 393.703125 C 136.3125 387.371094 118.242188 389.726562 103.738281 396.488281 C 96.59375 399.832031 92.777344 409.472656 96.472656 416.578125 C 100.378906 423.984375 111.996094 425.09375 117.21875 423.484375 Z M 117.21875 423.484375 " fill-opacity="1" fill-rule="nonzero"/></g></g></g><g clip-path="url(#id13)"><g clip-path="url(#id14)"><g clip-path="url(#id15)"><path fill="#c197d2" d="M 103.308594 602.9375 C 102.425781 604.566406 98.160156 611.535156 96.363281 613.898438 C 94.960938 615.753906 91.722656 618.742188 88.308594 619.75 C 84.609375 620.835938 80.898438 619.628906 79.472656 619.199219 C 76.15625 618.144531 72.792969 617.277344 69.378906 616.601562 C 67.496094 616.25 65.601562 616.070312 63.6875 616.054688 C 61.773438 616.039062 59.875 616.1875 57.988281 616.503906 C 56.101562 616.816406 54.253906 617.296875 52.449219 617.933594 C 50.644531 618.570312 48.910156 619.359375 47.246094 620.300781 C 40.199219 624.40625 35.257812 630.5625 31.050781 637.445312 C 29.441406 640.078125 27.917969 642.765625 26.226562 645.355469 C 24.828125 647.335938 23.222656 649.128906 21.410156 650.738281 C 18.964844 652.511719 16.261719 653.699219 13.296875 654.296875 C 7.5625 654.976562 0.0820312 652.980469 -1.144531 652.550781 C -8.597656 649.9375 -18.0625 653.585938 -20.613281 661.4375 C -23.105469 669.089844 -19.71875 678.058594 -11.742188 680.867188 C -0.957031 684.644531 10.140625 686.703125 21.894531 683.886719 C 25.617188 683.023438 29.171875 681.714844 32.566406 679.957031 C 35.957031 678.199219 39.078125 676.050781 41.929688 673.507812 C 46.582031 669.269531 50.136719 664.167969 53.355469 658.828125 C 54.710938 656.578125 56.035156 654.296875 57.445312 652.101562 C 58.136719 651.039062 60.511719 647.90625 62.683594 647.109375 C 64.855469 646.308594 68.855469 647.546875 69.921875 647.886719 C 73.117188 648.890625 76.363281 649.695312 79.660156 650.300781 C 83.085938 650.839844 86.519531 650.90625 89.964844 650.5 C 93.410156 650.097656 96.738281 649.238281 99.949219 647.921875 C 114.945312 642.097656 126.203125 627.769531 131.832031 612.785156 C 134.597656 605.398438 130.570312 595.839844 122.960938 593.355469 C 114.992188 590.796875 105.914062 598.132812 103.308594 602.9375 Z M 103.308594 602.9375 " fill-opacity="1" fill-rule="nonzero"/></g></g></g><g clip-path="url(#id16)"><g clip-path="url(#id17)"><g clip-path="url(#id18)"><path fill="#c197d2" d="M 285.445312 623.871094 C 286.015625 622.105469 288.925781 614.472656 290.257812 611.820312 C 291.292969 609.738281 293.929688 606.203125 297.101562 604.585938 C 300.535156 602.835938 304.40625 603.339844 305.886719 603.5 C 309.339844 603.929688 312.804688 604.160156 316.285156 604.199219 C 318.199219 604.195312 320.097656 604.023438 321.980469 603.6875 C 323.863281 603.351562 325.703125 602.855469 327.5 602.199219 C 329.296875 601.539062 331.023438 600.734375 332.679688 599.773438 C 334.335938 598.816406 335.894531 597.71875 337.359375 596.488281 C 343.53125 591.15625 347.257812 584.195312 350.121094 576.660156 C 351.222656 573.773438 352.226562 570.851562 353.414062 567.996094 C 354.421875 565.792969 355.667969 563.734375 357.15625 561.820312 C 359.234375 559.625 361.671875 557.960938 364.472656 556.828125 C 369.988281 555.105469 377.707031 555.691406 378.992188 555.886719 C 386.796875 557.085938 395.429688 551.757812 396.492188 543.570312 C 397.535156 535.59375 392.554688 527.402344 384.199219 526.101562 C 372.90625 524.378906 361.617188 524.394531 350.578125 529.324219 C 347.082031 530.855469 343.824219 532.800781 340.816406 535.152344 C 337.804688 537.503906 335.132812 540.191406 332.796875 543.214844 C 329 548.234375 326.449219 553.902344 324.265625 559.742188 C 323.347656 562.207031 322.46875 564.6875 321.484375 567.105469 C 321 568.277344 319.242188 571.796875 317.253906 572.980469 C 315.265625 574.164062 311.105469 573.683594 309.996094 573.546875 C 306.667969 573.144531 303.332031 572.953125 299.980469 572.960938 C 296.515625 573.066406 293.125 573.632812 289.8125 574.664062 C 286.5 575.695312 283.386719 577.152344 280.472656 579.035156 C 266.804688 587.519531 258.375 603.671875 255.601562 619.4375 C 254.242188 627.207031 259.953125 635.859375 267.894531 636.90625 C 276.199219 637.953125 283.769531 629.070312 285.445312 623.871094 Z M 285.445312 623.871094 " fill-opacity="1" fill-rule="nonzero"/></g></g></g><g clip-path="url(#id19)"><g clip-path="url(#id20)"><g clip-path="url(#id21)"><path fill="#c197d2" d="M 263.734375 733.695312 C 262.667969 735.210938 257.621094 741.636719 255.5625 743.773438 C 253.953125 745.453125 250.386719 748.046875 246.875 748.648438 C 243.078125 749.296875 239.53125 747.667969 238.167969 747.074219 C 234.996094 745.640625 231.753906 744.386719 228.441406 743.316406 C 226.617188 742.753906 224.753906 742.351562 222.855469 742.113281 C 220.957031 741.875 219.050781 741.800781 217.140625 741.894531 C 215.230469 741.988281 213.339844 742.246094 211.476562 742.671875 C 209.609375 743.09375 207.792969 743.675781 206.03125 744.417969 C 198.554688 747.675781 192.929688 753.214844 187.953125 759.558594 C 186.046875 761.988281 184.21875 764.476562 182.238281 766.851562 C 180.621094 768.660156 178.816406 770.253906 176.828125 771.640625 C 174.191406 773.117188 171.367188 773.980469 168.355469 774.230469 C 162.582031 774.238281 155.386719 771.382812 154.214844 770.816406 C 147.117188 767.355469 137.292969 769.875 133.84375 777.375 C 130.480469 784.683594 132.800781 793.984375 140.390625 797.707031 C 150.664062 802.710938 161.445312 806.050781 173.453125 804.621094 C 177.25 804.195312 180.933594 803.308594 184.507812 801.957031 C 188.082031 800.609375 191.429688 798.835938 194.558594 796.644531 C 199.671875 792.976562 203.796875 788.320312 207.613281 783.394531 C 209.222656 781.316406 210.800781 779.207031 212.457031 777.1875 C 213.269531 776.214844 215.992188 773.378906 218.242188 772.839844 C 220.492188 772.300781 224.324219 773.992188 225.34375 774.453125 C 228.398438 775.824219 231.527344 777 234.730469 777.988281 C 238.070312 778.917969 241.476562 779.386719 244.945312 779.382812 C 248.414062 779.382812 251.820312 778.917969 255.160156 777.984375 C 270.734375 773.945312 283.582031 761.023438 290.917969 746.796875 C 294.523438 739.78125 291.636719 729.824219 284.367188 726.464844 C 276.75 722.996094 266.878906 729.230469 263.734375 733.695312 Z M 263.734375 733.695312 " fill-opacity="1" fill-rule="nonzero"/></g></g></g><g clip-path="url(#id22)"><g clip-path="url(#id23)"><g clip-path="url(#id24)"><path fill="#c197d2" d="M 183.019531 966.039062 C 181.179688 966.257812 173.027344 966.796875 170.0625 966.691406 C 167.738281 966.617188 163.425781 965.699219 160.632812 963.488281 C 157.609375 961.097656 156.453125 957.371094 155.984375 955.957031 C 154.933594 952.640625 153.695312 949.394531 152.28125 946.214844 C 151.476562 944.476562 150.53125 942.824219 149.441406 941.25 C 148.351562 939.679688 147.132812 938.214844 145.785156 936.855469 C 144.4375 935.496094 142.984375 934.265625 141.421875 933.160156 C 139.859375 932.054688 138.210938 931.09375 136.480469 930.277344 C 129.0625 926.890625 121.183594 926.40625 113.140625 926.945312 C 110.058594 927.152344 106.984375 927.457031 103.890625 927.570312 C 101.46875 927.574219 99.078125 927.296875 96.71875 926.742188 C 93.855469 925.769531 91.324219 924.246094 89.128906 922.175781 C 85.261719 917.882812 82.578125 910.621094 82.21875 909.371094 C 80.050781 901.777344 71.609375 896.152344 63.722656 898.601562 C 56.039062 900.980469 50.671875 908.925781 52.976562 917.058594 C 56.117188 928.046875 60.839844 938.296875 69.925781 946.273438 C 72.777344 948.8125 75.902344 950.960938 79.292969 952.71875 C 82.6875 954.472656 86.246094 955.78125 89.964844 956.644531 C 96.113281 958 102.328125 957.953125 108.546875 957.5 C 111.167969 957.308594 113.792969 957.074219 116.398438 956.960938 C 117.667969 956.910156 121.597656 957.039062 123.503906 958.355469 C 125.40625 959.667969 126.707031 963.648438 127.042969 964.714844 C 128.066406 967.90625 129.285156 971.019531 130.691406 974.0625 C 132.230469 977.167969 134.15625 980.011719 136.476562 982.59375 C 138.796875 985.171875 141.417969 987.394531 144.347656 989.257812 C 157.757812 998.140625 175.957031 999.066406 191.441406 995.015625 C 199.070312 993.007812 204.550781 984.207031 202.1875 976.554688 C 199.679688 968.570312 188.445312 965.394531 183.019531 966.039062 Z M 183.019531 966.039062 " fill-opacity="1" fill-rule="nonzero"/></g></g></g><g clip-path="url(#id25)"><g clip-path="url(#id26)"><g clip-path="url(#id27)"><path fill="#c197d2" d="M 341.582031 860.390625 C 343.214844 861.265625 350.207031 865.492188 352.578125 867.277344 C 354.441406 868.671875 357.445312 871.894531 358.472656 875.304688 C 359.578125 878.996094 358.390625 882.714844 357.96875 884.140625 C 356.929688 887.464844 356.082031 890.832031 355.421875 894.25 C 355.082031 896.132812 354.910156 898.03125 354.90625 899.945312 C 354.898438 901.855469 355.058594 903.753906 355.382812 905.640625 C 355.710938 907.527344 356.195312 909.371094 356.84375 911.171875 C 357.492188 912.972656 358.289062 914.703125 359.238281 916.363281 C 363.378906 923.386719 369.5625 928.300781 376.464844 932.464844 C 379.105469 934.0625 381.800781 935.574219 384.398438 937.253906 C 386.386719 938.636719 388.191406 940.234375 389.808594 942.039062 C 391.597656 944.476562 392.796875 947.175781 393.410156 950.132812 C 394.121094 955.867188 392.160156 963.355469 391.738281 964.585938 C 389.167969 972.050781 392.863281 981.496094 400.726562 984.007812 C 408.390625 986.460938 417.34375 983.023438 420.113281 975.035156 C 423.832031 964.230469 425.832031 953.125 422.957031 941.382812 C 422.074219 937.664062 420.746094 934.113281 418.96875 930.730469 C 417.195312 927.347656 415.027344 924.238281 412.472656 921.402344 C 408.210938 916.769531 403.089844 913.242188 397.734375 910.050781 C 395.472656 908.710938 393.1875 907.398438 390.984375 906 C 389.921875 905.3125 386.773438 902.953125 385.964844 900.785156 C 385.15625 898.617188 386.371094 894.609375 386.703125 893.542969 C 387.691406 890.34375 388.480469 887.09375 389.070312 883.792969 C 389.589844 880.367188 389.636719 876.929688 389.214844 873.488281 C 388.792969 870.042969 387.914062 866.71875 386.582031 863.515625 C 380.679688 848.550781 366.292969 837.367188 351.28125 831.816406 C 343.878906 829.089844 334.34375 833.164062 331.898438 840.789062 C 329.378906 848.773438 336.765625 857.8125 341.582031 860.390625 Z M 341.582031 860.390625 " fill-opacity="1" fill-rule="nonzero"/></g></g></g><g clip-path="url(#id28)"><path fill="#f8a8c5" d="M 304.078125 78.554688 C 301.472656 74.757812 300.246094 71.933594 300.742188 67.859375 C 301.058594 65.226562 301.859375 62.773438 303.5625 60.699219 C 306.265625 57.417969 309.578125 55.023438 313.726562 54 C 315.910156 53.460938 320.765625 53.164062 323.671875 54.550781 C 325.957031 55.65625 327.859375 57.226562 329.386719 59.269531 C 332.503906 63.429688 332.335938 70.558594 330.566406 74.316406 C 329.558594 76.453125 327.957031 78.066406 326.128906 79.46875 C 324.242188 80.917969 322.179688 82.046875 319.855469 82.628906 C 318.554688 82.960938 314.421875 83.796875 311.796875 83.121094 C 309.042969 82.414062 305.367188 80.429688 304.078125 78.554688 Z M 304.078125 78.554688 " fill-opacity="1" fill-rule="nonzero"/></g><g clip-path="url(#id29)"><path fill="#f8a8c5" d="M 148.570312 242.722656 C 145.964844 238.925781 144.742188 236.101562 145.234375 232.027344 C 145.554688 229.394531 146.351562 226.941406 148.054688 224.867188 C 150.761719 221.585938 154.074219 219.191406 158.222656 218.167969 C 160.402344 217.628906 165.257812 217.332031 168.164062 218.71875 C 170.449219 219.824219 172.355469 221.394531 173.878906 223.4375 C 177 227.597656 176.832031 234.726562 175.058594 238.484375 C 174.050781 240.621094 172.449219 242.234375 170.625 243.636719 C 168.734375 245.085938 166.671875 246.214844 164.347656 246.796875 C 163.046875 247.128906 158.914062 247.964844 156.289062 247.289062 C 153.535156 246.582031 149.859375 244.597656 148.570312 242.722656 Z M 148.570312 242.722656 " fill-opacity="1" fill-rule="nonzero"/></g><g clip-path="url(#id30)"><path fill="#f8a8c5" d="M 336.300781 397.28125 C 333.695312 393.488281 332.46875 390.660156 332.964844 386.589844 C 333.28125 383.953125 334.082031 381.503906 335.785156 379.429688 C 338.488281 376.144531 341.800781 373.75 345.949219 372.726562 C 348.132812 372.191406 352.988281 371.894531 355.894531 373.277344 C 358.179688 374.382812 360.085938 375.957031 361.609375 378 C 364.726562 382.15625 364.558594 389.289062 362.789062 393.046875 C 361.78125 395.179688 360.179688 396.796875 358.355469 398.195312 C 356.464844 399.644531 354.402344 400.773438 352.078125 401.359375 C 350.777344 401.6875 346.644531 402.523438 344.019531 401.851562 C 341.265625 401.140625 337.589844 399.160156 336.300781 397.28125 Z M 336.300781 397.28125 " fill-opacity="1" fill-rule="nonzero"/></g><g clip-path="url(#id31)"><path fill="#f8a8c5" d="M 164.683594 572.199219 C 162.078125 568.40625 160.851562 565.582031 161.347656 561.507812 C 161.664062 558.871094 162.464844 556.421875 164.167969 554.347656 C 166.871094 551.066406 170.183594 548.671875 174.332031 547.644531 C 176.515625 547.109375 181.371094 546.8125 184.277344 548.195312 C 186.5625 549.300781 188.464844 550.875 189.992188 552.917969 C 193.109375 557.078125 192.941406 564.207031 191.171875 567.964844 C 190.164062 570.097656 188.5625 571.714844 186.734375 573.113281 C 184.847656 574.566406 182.785156 575.695312 180.460938 576.277344 C 179.160156 576.605469 175.027344 577.441406 172.402344 576.769531 C 169.648438 576.058594 165.972656 574.078125 164.683594 572.199219 Z M 164.683594 572.199219 " fill-opacity="1" fill-rule="nonzero"/></g><g clip-path="url(#id32)"><path fill="#f8a8c5" d="M 368.523438 725.65625 C 365.917969 721.859375 364.691406 719.035156 365.1875 714.964844 C 365.507812 712.328125 366.304688 709.875 368.007812 707.800781 C 370.710938 704.519531 374.023438 702.125 378.175781 701.101562 C 380.355469 700.5625 385.210938 700.265625 388.117188 701.652344 C 390.402344 702.757812 392.308594 704.332031 393.832031 706.371094 C 396.949219 710.53125 396.785156 717.664062 395.011719 721.417969 C 394.003906 723.554688 392.402344 725.167969 390.578125 726.570312 C 388.6875 728.019531 386.625 729.148438 384.300781 729.734375 C 383 730.0625 378.867188 730.898438 376.242188 730.226562 C 373.488281 729.515625 369.8125 727.535156 368.523438 725.65625 Z M 368.523438 725.65625 " fill-opacity="1" fill-rule="nonzero"/></g><g clip-path="url(#id33)"><path fill="#f8a8c5" d="M 61.410156 812.09375 C 58.804688 808.296875 57.578125 805.472656 58.074219 801.402344 C 58.394531 798.765625 59.191406 796.3125 60.894531 794.242188 C 63.597656 790.957031 66.910156 788.5625 71.0625 787.539062 C 73.242188 787 78.097656 786.703125 81.003906 788.089844 C 83.289062 789.195312 85.195312 790.769531 86.71875 792.808594 C 89.835938 796.96875 89.667969 804.101562 87.898438 807.855469 C 86.890625 809.992188 85.289062 811.605469 83.464844 813.007812 C 81.574219 814.457031 79.511719 815.585938 77.1875 816.171875 C 75.886719 816.5 71.753906 817.335938 69.128906 816.664062 C 66.375 815.953125 62.699219 813.972656 61.410156 812.09375 Z M 61.410156 812.09375 " fill-opacity="1" fill-rule="nonzero"/></g><g clip-path="url(#id34)"><path fill="#f8a8c5" d="M 239.457031 912.160156 C 236.855469 908.363281 235.628906 905.539062 236.125 901.46875 C 236.441406 898.832031 237.238281 896.378906 238.945312 894.308594 C 241.648438 891.023438 244.960938 888.628906 249.109375 887.605469 C 251.292969 887.066406 256.148438 886.769531 259.054688 888.15625 C 261.339844 889.261719 263.242188 890.835938 264.765625 892.875 C 267.886719 897.035156 267.71875 904.167969 265.945312 907.921875 C 264.941406 910.058594 263.339844 911.671875 261.511719 913.074219 C 259.625 914.523438 257.5625 915.652344 255.238281 916.238281 C 253.9375 916.566406 249.800781 917.402344 247.179688 916.730469 C 244.425781 916.019531 240.75 914.039062 239.457031 912.160156 Z M 239.457031 912.160156 " fill-opacity="1" fill-rule="nonzero"/></g><g clip-path="url(#id35)"><g clip-path="url(#id36)"><g clip-path="url(#id37)"><path fill="#c197d2" d="M 369.40625 -35.746094 C 371.070312 -34.929688 378.214844 -30.960938 380.648438 -29.265625 C 382.5625 -27.941406 385.683594 -24.832031 386.835938 -21.460938 C 388.074219 -17.8125 387.027344 -14.054688 386.652344 -12.613281 C 385.738281 -9.253906 385.015625 -5.855469 384.480469 -2.417969 C 384.210938 -0.523438 384.109375 1.378906 384.175781 3.292969 C 384.238281 5.203125 384.46875 7.09375 384.863281 8.96875 C 385.257812 10.839844 385.8125 12.664062 386.523438 14.441406 C 387.238281 16.214844 388.097656 17.914062 389.109375 19.539062 C 393.507812 26.40625 399.863281 31.089844 406.914062 35 C 409.613281 36.496094 412.363281 37.910156 415.023438 39.492188 C 417.058594 40.800781 418.917969 42.332031 420.601562 44.074219 C 422.480469 46.445312 423.777344 49.097656 424.5 52.03125 C 425.417969 57.734375 423.738281 65.289062 423.359375 66.535156 C 421.066406 74.089844 425.105469 83.390625 433.058594 85.613281 C 440.804688 87.78125 449.625 84.019531 452.097656 75.933594 C 455.417969 65 457.011719 53.828125 453.703125 42.199219 C 452.683594 38.515625 451.226562 35.019531 449.328125 31.703125 C 447.429688 28.386719 445.148438 25.359375 442.492188 22.617188 C 438.0625 18.144531 432.816406 14.8125 427.34375 11.820312 C 425.039062 10.558594 422.707031 9.332031 420.453125 8.015625 C 419.363281 7.367188 416.132812 5.128906 415.242188 2.992188 C 414.355469 0.855469 415.421875 -3.195312 415.71875 -4.273438 C 416.585938 -7.507812 417.253906 -10.785156 417.722656 -14.105469 C 418.117188 -17.550781 418.039062 -20.984375 417.488281 -24.410156 C 416.941406 -27.835938 415.941406 -31.125 414.492188 -34.277344 C 408.042969 -49.015625 393.253906 -59.660156 378.046875 -64.65625 C 370.550781 -67.109375 361.171875 -62.6875 359.007812 -54.976562 C 356.785156 -46.90625 364.5 -38.144531 369.40625 -35.746094 Z M 369.40625 -35.746094 " fill-opacity="1" fill-rule="nonzero"/></g></g></g><g clip-path="url(#id38)"><g clip-path="url(#id39)"><g clip-path="url(#id40)"><path fill="#c197d2" d="M 1388.1875 880.859375 C 1387.234375 882.449219 1382.671875 889.226562 1380.777344 891.507812 C 1379.292969 893.300781 1375.929688 896.148438 1372.472656 897.007812 C 1368.730469 897.933594 1365.074219 896.566406 1363.671875 896.074219 C 1360.402344 894.875 1357.078125 893.863281 1353.695312 893.039062 C 1351.832031 892.613281 1349.945312 892.347656 1348.035156 892.25 C 1346.125 892.148438 1344.21875 892.214844 1342.320312 892.449219 C 1340.421875 892.683594 1338.558594 893.078125 1336.726562 893.640625 C 1334.898438 894.199219 1333.128906 894.914062 1331.425781 895.78125 C 1324.207031 899.574219 1319.003906 905.511719 1314.503906 912.203125 C 1312.78125 914.765625 1311.140625 917.382812 1309.339844 919.898438 C 1307.859375 921.816406 1306.175781 923.539062 1304.296875 925.066406 C 1301.773438 926.734375 1299.023438 927.804688 1296.035156 928.273438 C 1290.277344 928.703125 1282.890625 926.382812 1281.683594 925.902344 C 1274.351562 922.96875 1264.738281 926.203125 1261.847656 933.9375 C 1259.027344 941.472656 1262.023438 950.578125 1269.867188 953.734375 C 1280.480469 957.972656 1291.476562 960.511719 1303.34375 958.207031 C 1307.097656 957.507812 1310.710938 956.351562 1314.175781 954.742188 C 1317.640625 953.132812 1320.851562 951.121094 1323.808594 948.707031 C 1328.644531 944.671875 1332.414062 939.730469 1335.859375 934.535156 C 1337.3125 932.34375 1338.730469 930.125 1340.238281 927.992188 C 1340.972656 926.960938 1343.480469 923.933594 1345.6875 923.230469 C 1347.890625 922.527344 1351.835938 923.933594 1352.886719 924.320312 C 1356.035156 925.464844 1359.242188 926.410156 1362.507812 927.15625 C 1365.90625 927.84375 1369.335938 928.058594 1372.796875 927.800781 C 1376.257812 927.546875 1379.617188 926.832031 1382.882812 925.65625 C 1398.117188 920.488281 1409.984375 906.660156 1416.257812 891.933594 C 1419.339844 884.675781 1415.734375 874.953125 1408.238281 872.136719 C 1400.386719 869.238281 1391 876.175781 1388.1875 880.859375 Z M 1388.1875 880.859375 " fill-opacity="1" fill-rule="nonzero"/></g></g></g><g clip-path="url(#id41)"><g clip-path="url(#id42)"><g clip-path="url(#id43)"><path fill="#c197d2" d="M 1372.144531 718.921875 C 1373.984375 718.703125 1382.136719 718.164062 1385.101562 718.269531 C 1387.425781 718.34375 1391.734375 719.261719 1394.53125 721.472656 C 1397.550781 723.863281 1398.710938 727.589844 1399.179688 729.003906 C 1400.230469 732.320312 1401.464844 735.566406 1402.882812 738.746094 C 1403.683594 740.484375 1404.632812 742.136719 1405.722656 743.710938 C 1406.8125 745.28125 1408.03125 746.746094 1409.378906 748.105469 C 1410.726562 749.464844 1412.179688 750.695312 1413.742188 751.800781 C 1415.304688 752.90625 1416.949219 753.867188 1418.679688 754.683594 C 1426.097656 758.070312 1433.980469 758.554688 1442.023438 758.015625 C 1445.105469 757.808594 1448.179688 757.503906 1451.269531 757.390625 C 1453.695312 757.386719 1456.085938 757.664062 1458.445312 758.21875 C 1461.308594 759.191406 1463.835938 760.714844 1466.035156 762.785156 C 1469.898438 767.078125 1472.585938 774.339844 1472.945312 775.589844 C 1475.113281 783.183594 1483.554688 788.808594 1491.4375 786.359375 C 1499.125 783.980469 1504.492188 776.035156 1502.1875 767.902344 C 1499.046875 756.914062 1494.324219 746.664062 1485.238281 738.6875 C 1482.386719 736.148438 1479.261719 734 1475.867188 732.242188 C 1472.476562 730.488281 1468.917969 729.179688 1465.199219 728.316406 C 1459.050781 726.960938 1452.835938 727.007812 1446.617188 727.460938 C 1443.996094 727.652344 1441.371094 727.886719 1438.761719 728 C 1437.496094 728.050781 1433.566406 727.921875 1431.660156 726.605469 C 1429.757812 725.292969 1428.457031 721.3125 1428.117188 720.246094 C 1427.09375 717.054688 1425.878906 713.941406 1424.472656 710.898438 C 1422.933594 707.792969 1421.003906 704.949219 1418.6875 702.367188 C 1416.367188 699.789062 1413.746094 697.566406 1410.816406 695.703125 C 1397.40625 686.820312 1379.207031 685.894531 1363.722656 689.945312 C 1356.09375 691.953125 1350.613281 700.753906 1352.972656 708.40625 C 1355.484375 716.390625 1366.71875 719.566406 1372.144531 718.921875 Z M 1372.144531 718.921875 " fill-opacity="1" fill-rule="nonzero"/></g></g></g><g clip-path="url(#id44)"><g clip-path="url(#id45)"><g clip-path="url(#id46)"><path fill="#c197d2" d="M 1106.789062 811.722656 C 1108.328125 810.6875 1115.339844 806.492188 1118.023438 805.234375 C 1120.128906 804.238281 1124.382812 803.09375 1127.878906 803.785156 C 1131.660156 804.535156 1134.386719 807.324219 1135.449219 808.367188 C 1137.898438 810.839844 1140.476562 813.167969 1143.1875 815.351562 C 1144.695312 816.53125 1146.289062 817.574219 1147.976562 818.476562 C 1149.664062 819.378906 1151.417969 820.125 1153.234375 820.722656 C 1155.054688 821.316406 1156.910156 821.75 1158.804688 822.019531 C 1160.699219 822.292969 1162.601562 822.398438 1164.515625 822.335938 C 1172.660156 821.96875 1179.894531 818.804688 1186.808594 814.660156 C 1189.457031 813.070312 1192.054688 811.398438 1194.753906 809.890625 C 1196.910156 808.78125 1199.164062 807.9375 1201.515625 807.351562 C 1204.507812 806.914062 1207.453125 807.117188 1210.355469 807.960938 C 1215.753906 810.019531 1221.453125 815.257812 1222.339844 816.207031 C 1227.734375 821.976562 1237.808594 823.132812 1243.710938 817.359375 C 1249.46875 811.738281 1250.625 802.21875 1244.863281 796.03125 C 1237.058594 787.6875 1228.183594 780.714844 1216.460938 777.757812 C 1212.761719 776.796875 1209.003906 776.308594 1205.183594 776.292969 C 1201.363281 776.277344 1197.601562 776.734375 1193.894531 777.664062 C 1187.808594 779.257812 1182.292969 782.132812 1176.96875 785.371094 C 1174.722656 786.738281 1172.492188 788.140625 1170.222656 789.433594 C 1169.121094 790.050781 1165.5625 791.730469 1163.265625 791.429688 C 1160.972656 791.128906 1158 788.175781 1157.214844 787.382812 C 1154.847656 785.007812 1152.347656 782.789062 1149.710938 780.726562 C 1146.921875 778.660156 1143.910156 777.007812 1140.667969 775.769531 C 1137.429688 774.53125 1134.082031 773.75 1130.628906 773.425781 C 1114.640625 771.632812 1098.023438 779.105469 1086.085938 789.769531 C 1080.210938 795.03125 1079.34375 805.367188 1084.933594 811.097656 C 1090.808594 817.0625 1102.253906 814.769531 1106.789062 811.722656 Z M 1106.789062 811.722656 " fill-opacity="1" fill-rule="nonzero"/></g></g></g><g clip-path="url(#id47)"><g clip-path="url(#id48)"><g clip-path="url(#id49)"><path fill="#c197d2" d="M 1370.851562 577.898438 C 1369.082031 578.445312 1361.15625 580.4375 1358.222656 580.867188 C 1355.921875 581.210938 1351.515625 581.078125 1348.367188 579.410156 C 1344.96875 577.597656 1343.160156 574.136719 1342.445312 572.832031 C 1340.816406 569.757812 1339.015625 566.785156 1337.050781 563.910156 C 1335.953125 562.347656 1334.726562 560.890625 1333.371094 559.539062 C 1332.015625 558.1875 1330.554688 556.964844 1328.984375 555.871094 C 1327.414062 554.777344 1325.761719 553.824219 1324.027344 553.019531 C 1322.292969 552.210938 1320.5 551.5625 1318.652344 551.066406 C 1310.746094 549.066406 1302.90625 550.007812 1295.089844 551.980469 C 1292.09375 552.734375 1289.125 553.585938 1286.105469 554.25 C 1283.722656 554.691406 1281.320312 554.847656 1278.898438 554.726562 C 1275.910156 554.285156 1273.144531 553.238281 1270.613281 551.59375 C 1266.039062 548.0625 1262.09375 541.402344 1261.519531 540.238281 C 1258.023438 533.15625 1248.710938 529.136719 1241.390625 532.960938 C 1234.257812 536.683594 1230.402344 545.460938 1234.128906 553.046875 C 1239.191406 563.292969 1245.675781 572.53125 1256.046875 578.746094 C 1259.308594 580.734375 1262.765625 582.289062 1266.417969 583.40625 C 1270.070312 584.523438 1273.804688 585.171875 1277.621094 585.351562 C 1283.910156 585.582031 1290.019531 584.421875 1296.054688 582.863281 C 1298.597656 582.203125 1301.136719 581.5 1303.683594 580.921875 C 1304.921875 580.644531 1308.808594 580.066406 1310.921875 581.019531 C 1313.03125 581.96875 1315.023438 585.652344 1315.546875 586.640625 C 1317.125 589.59375 1318.878906 592.441406 1320.808594 595.179688 C 1322.882812 597.960938 1325.289062 600.414062 1328.03125 602.535156 C 1330.777344 604.65625 1333.757812 606.371094 1336.972656 607.679688 C 1351.757812 614.011719 1369.828125 611.65625 1384.332031 604.894531 C 1391.480469 601.550781 1395.292969 591.910156 1391.597656 584.804688 C 1387.695312 577.402344 1376.074219 576.289062 1370.851562 577.898438 Z M 1370.851562 577.898438 " fill-opacity="1" fill-rule="nonzero"/></g></g></g><g clip-path="url(#id50)"><g clip-path="url(#id51)"><g clip-path="url(#id52)"><path fill="#c197d2" d="M 1384.761719 398.445312 C 1385.644531 396.816406 1389.910156 389.847656 1391.707031 387.484375 C 1393.109375 385.628906 1396.347656 382.640625 1399.765625 381.632812 C 1403.460938 380.546875 1407.171875 381.753906 1408.597656 382.183594 C 1411.914062 383.238281 1415.277344 384.105469 1418.691406 384.785156 C 1420.574219 385.132812 1422.46875 385.3125 1424.382812 385.328125 C 1426.296875 385.347656 1428.195312 385.195312 1430.082031 384.878906 C 1431.96875 384.566406 1433.816406 384.089844 1435.621094 383.449219 C 1437.425781 382.8125 1439.160156 382.023438 1440.824219 381.082031 C 1447.871094 376.976562 1452.8125 370.820312 1457.019531 363.941406 C 1458.628906 361.304688 1460.152344 358.617188 1461.84375 356.027344 C 1463.242188 354.046875 1464.847656 352.253906 1466.660156 350.644531 C 1469.105469 348.871094 1471.8125 347.683594 1474.773438 347.085938 C 1480.507812 346.40625 1487.988281 348.402344 1489.214844 348.832031 C 1496.667969 351.445312 1506.132812 347.796875 1508.683594 339.945312 C 1511.175781 332.292969 1507.789062 323.328125 1499.816406 320.515625 C 1489.027344 316.738281 1477.929688 314.679688 1466.175781 317.496094 C 1462.453125 318.359375 1458.898438 319.667969 1455.503906 321.425781 C 1452.113281 323.183594 1448.992188 325.335938 1446.140625 327.875 C 1441.488281 332.113281 1437.933594 337.214844 1434.714844 342.554688 C 1433.359375 344.808594 1432.035156 347.085938 1430.625 349.28125 C 1429.933594 350.34375 1427.558594 353.476562 1425.386719 354.277344 C 1423.214844 355.074219 1419.214844 353.835938 1418.148438 353.496094 C 1414.953125 352.492188 1411.707031 351.6875 1408.410156 351.082031 C 1404.984375 350.542969 1401.550781 350.476562 1398.105469 350.882812 C 1394.660156 351.285156 1391.332031 352.148438 1388.121094 353.460938 C 1373.125 359.289062 1361.867188 373.613281 1356.238281 388.597656 C 1353.472656 395.984375 1357.5 405.542969 1365.109375 408.03125 C 1373.078125 410.589844 1382.15625 403.25 1384.761719 398.445312 Z M 1384.761719 398.445312 " fill-opacity="1" fill-rule="nonzero"/></g></g></g><g clip-path="url(#id53)"><g clip-path="url(#id54)"><g clip-path="url(#id55)"><path fill="#c197d2" d="M 1202.625 377.515625 C 1202.054688 379.277344 1199.144531 386.910156 1197.8125 389.5625 C 1196.777344 391.644531 1194.140625 395.179688 1190.96875 396.800781 C 1187.535156 398.546875 1183.664062 398.042969 1182.1875 397.882812 C 1178.730469 397.453125 1175.265625 397.222656 1171.785156 397.183594 C 1169.871094 397.1875 1167.972656 397.359375 1166.089844 397.695312 C 1164.207031 398.03125 1162.367188 398.527344 1160.570312 399.183594 C 1158.773438 399.84375 1157.046875 400.652344 1155.390625 401.609375 C 1153.734375 402.570312 1152.175781 403.664062 1150.710938 404.894531 C 1144.539062 410.226562 1140.8125 417.1875 1137.949219 424.722656 C 1136.847656 427.609375 1135.84375 430.53125 1134.65625 433.386719 C 1133.648438 435.589844 1132.402344 437.648438 1130.914062 439.5625 C 1128.835938 441.757812 1126.398438 443.421875 1123.597656 444.554688 C 1118.082031 446.277344 1110.367188 445.691406 1109.078125 445.496094 C 1101.273438 444.300781 1092.640625 449.625 1091.578125 457.8125 C 1090.535156 465.789062 1095.515625 473.984375 1103.871094 475.28125 C 1115.164062 477.007812 1126.453125 476.988281 1137.492188 472.058594 C 1140.988281 470.527344 1144.246094 468.582031 1147.253906 466.230469 C 1150.265625 463.878906 1152.941406 461.191406 1155.273438 458.171875 C 1159.070312 453.148438 1161.621094 447.480469 1163.804688 441.640625 C 1164.722656 439.175781 1165.601562 436.695312 1166.585938 434.277344 C 1167.070312 433.105469 1168.828125 429.585938 1170.816406 428.402344 C 1172.804688 427.21875 1176.964844 427.699219 1178.074219 427.835938 C 1181.402344 428.238281 1184.738281 428.433594 1188.089844 428.421875 C 1191.554688 428.320312 1194.945312 427.753906 1198.257812 426.71875 C 1201.570312 425.6875 1204.683594 424.230469 1207.597656 422.347656 C 1221.265625 413.863281 1229.695312 397.710938 1232.472656 381.945312 C 1233.828125 374.175781 1228.117188 365.523438 1220.175781 364.476562 C 1211.871094 363.429688 1204.300781 372.3125 1202.625 377.515625 Z M 1202.625 377.515625 " fill-opacity="1" fill-rule="nonzero"/></g></g></g><g clip-path="url(#id56)"><g clip-path="url(#id57)"><g clip-path="url(#id58)"><path fill="#c197d2" d="M 1224.335938 267.6875 C 1225.402344 266.171875 1230.449219 259.746094 1232.507812 257.609375 C 1234.121094 255.929688 1237.683594 253.339844 1241.195312 252.734375 C 1244.992188 252.085938 1248.539062 253.714844 1249.902344 254.308594 C 1253.074219 255.742188 1256.316406 256.996094 1259.628906 258.066406 C 1261.457031 258.628906 1263.316406 259.03125 1265.214844 259.269531 C 1267.113281 259.511719 1269.019531 259.582031 1270.929688 259.488281 C 1272.839844 259.394531 1274.730469 259.136719 1276.59375 258.710938 C 1278.460938 258.289062 1280.277344 257.707031 1282.042969 256.964844 C 1289.515625 253.707031 1295.144531 248.167969 1300.117188 241.824219 C 1302.023438 239.394531 1303.851562 236.90625 1305.832031 234.53125 C 1307.449219 232.726562 1309.253906 231.128906 1311.242188 229.742188 C 1313.878906 228.265625 1316.703125 227.402344 1319.714844 227.152344 C 1325.488281 227.144531 1332.683594 230 1333.855469 230.570312 C 1340.953125 234.03125 1350.777344 231.507812 1354.226562 224.007812 C 1357.59375 216.699219 1355.269531 207.398438 1347.679688 203.675781 C 1337.40625 198.671875 1326.625 195.335938 1314.617188 196.761719 C 1310.824219 197.1875 1307.136719 198.074219 1303.5625 199.425781 C 1299.992188 200.777344 1296.640625 202.546875 1293.511719 204.738281 C 1288.398438 208.40625 1284.273438 213.0625 1280.457031 217.988281 C 1278.847656 220.070312 1277.269531 222.175781 1275.613281 224.195312 C 1274.800781 225.167969 1272.078125 228.003906 1269.828125 228.542969 C 1267.578125 229.085938 1263.746094 227.390625 1262.726562 226.929688 C 1259.671875 225.558594 1256.542969 224.382812 1253.339844 223.394531 C 1250 222.464844 1246.59375 222 1243.125 222 C 1239.65625 222 1236.25 222.464844 1232.910156 223.398438 C 1217.335938 227.441406 1204.488281 240.359375 1197.15625 254.585938 C 1193.546875 261.601562 1196.433594 271.5625 1203.703125 274.917969 C 1211.320312 278.386719 1221.191406 272.152344 1224.335938 267.6875 Z M 1224.335938 267.6875 " fill-opacity="1" fill-rule="nonzero"/></g></g></g><g clip-path="url(#id59)"><g clip-path="url(#id60)"><g clip-path="url(#id61)"><path fill="#c197d2" d="M 1305.050781 35.34375 C 1306.890625 35.125 1315.042969 34.585938 1318.007812 34.691406 C 1320.332031 34.765625 1324.644531 35.683594 1327.4375 37.894531 C 1330.460938 40.285156 1331.617188 44.011719 1332.085938 45.425781 C 1333.136719 48.742188 1334.375 51.992188 1335.789062 55.167969 C 1336.59375 56.90625 1337.539062 58.558594 1338.628906 60.132812 C 1339.71875 61.703125 1340.9375 63.167969 1342.285156 64.527344 C 1343.632812 65.886719 1345.085938 67.117188 1346.648438 68.222656 C 1348.210938 69.328125 1349.859375 70.289062 1351.589844 71.105469 C 1359.007812 74.492188 1366.886719 74.976562 1374.929688 74.4375 C 1378.011719 74.230469 1381.085938 73.925781 1384.179688 73.8125 C 1386.601562 73.8125 1388.992188 74.085938 1391.351562 74.640625 C 1394.214844 75.613281 1396.746094 77.136719 1398.941406 79.210938 C 1402.808594 83.5 1405.492188 90.761719 1405.851562 92.011719 C 1408.019531 99.605469 1416.460938 105.230469 1424.347656 102.78125 C 1432.03125 100.402344 1437.398438 92.457031 1435.09375 84.324219 C 1431.953125 73.335938 1427.230469 63.085938 1418.144531 55.109375 C 1415.292969 52.570312 1412.167969 50.421875 1408.777344 48.664062 C 1405.382812 46.910156 1401.824219 45.601562 1398.105469 44.738281 C 1391.957031 43.386719 1385.742188 43.429688 1379.523438 43.882812 C 1376.902344 44.074219 1374.277344 44.308594 1371.671875 44.425781 C 1370.40625 44.472656 1366.472656 44.34375 1364.566406 43.027344 C 1362.664062 41.714844 1361.363281 37.734375 1361.027344 36.667969 C 1360.003906 33.476562 1358.785156 30.363281 1357.378906 27.324219 C 1355.839844 24.214844 1353.914062 21.371094 1351.59375 18.789062 C 1349.273438 16.210938 1346.652344 13.988281 1343.722656 12.125 C 1330.3125 3.242188 1312.113281 2.316406 1296.628906 6.367188 C 1289 8.375 1283.519531 17.175781 1285.882812 24.828125 C 1288.390625 32.8125 1299.625 35.988281 1305.050781 35.34375 Z M 1305.050781 35.34375 " fill-opacity="1" fill-rule="nonzero"/></g></g></g><g clip-path="url(#id62)"><g clip-path="url(#id63)"><g clip-path="url(#id64)"><path fill="#c197d2" d="M 1146.488281 140.992188 C 1144.855469 140.117188 1137.863281 135.890625 1135.492188 134.105469 C 1133.628906 132.710938 1130.625 129.488281 1129.597656 126.078125 C 1128.492188 122.386719 1129.679688 118.667969 1130.101562 117.242188 C 1131.140625 113.921875 1131.988281 110.550781 1132.648438 107.132812 C 1132.988281 105.25 1133.160156 103.351562 1133.164062 101.441406 C 1133.171875 99.527344 1133.011719 97.628906 1132.6875 95.742188 C 1132.359375 93.855469 1131.875 92.011719 1131.226562 90.210938 C 1130.578125 88.410156 1129.78125 86.679688 1128.832031 85.019531 C 1124.691406 77.996094 1118.507812 73.085938 1111.605469 68.917969 C 1108.964844 67.320312 1106.269531 65.808594 1103.671875 64.128906 C 1101.683594 62.746094 1099.878906 61.148438 1098.261719 59.34375 C 1096.472656 56.90625 1095.273438 54.207031 1094.660156 51.25 C 1093.949219 45.519531 1095.910156 38.027344 1096.332031 36.796875 C 1098.902344 29.332031 1095.207031 19.886719 1087.34375 17.375 C 1079.679688 14.925781 1070.730469 18.359375 1067.957031 26.347656 C 1064.238281 37.152344 1062.238281 48.261719 1065.113281 60.003906 C 1065.996094 63.71875 1067.328125 67.269531 1069.101562 70.652344 C 1070.875 74.035156 1073.042969 77.144531 1075.597656 79.984375 C 1079.859375 84.613281 1084.980469 88.140625 1090.335938 91.332031 C 1092.597656 92.675781 1094.882812 93.984375 1097.085938 95.386719 C 1098.148438 96.070312 1101.296875 98.429688 1102.105469 100.597656 C 1102.914062 102.765625 1101.699219 106.773438 1101.367188 107.839844 C 1100.378906 111.042969 1099.589844 114.289062 1099 117.589844 C 1098.480469 121.019531 1098.433594 124.453125 1098.855469 127.898438 C 1099.277344 131.339844 1100.15625 134.664062 1101.488281 137.867188 C 1107.390625 152.832031 1121.777344 164.015625 1136.789062 169.566406 C 1144.191406 172.292969 1153.726562 168.21875 1156.171875 160.59375 C 1158.691406 152.613281 1151.304688 143.570312 1146.488281 140.992188 Z M 1146.488281 140.992188 " fill-opacity="1" fill-rule="nonzero"/></g></g></g><g clip-path="url(#id65)"><path fill="#f8a8c5" d="M 1183.996094 922.824219 C 1186.601562 926.621094 1187.824219 929.445312 1187.328125 933.515625 C 1187.011719 936.152344 1186.214844 938.605469 1184.511719 940.675781 C 1181.804688 943.960938 1178.492188 946.355469 1174.34375 947.378906 C 1172.160156 947.917969 1167.308594 948.214844 1164.398438 946.828125 C 1162.113281 945.722656 1160.210938 944.148438 1158.6875 942.109375 C 1155.566406 937.949219 1155.734375 930.816406 1157.507812 927.0625 C 1158.511719 924.925781 1160.117188 923.3125 1161.941406 921.910156 C 1163.832031 920.460938 1165.894531 919.332031 1168.21875 918.746094 C 1169.519531 918.417969 1173.652344 917.582031 1176.277344 918.253906 C 1179.027344 918.964844 1182.703125 920.945312 1183.996094 922.824219 Z M 1183.996094 922.824219 " fill-opacity="1" fill-rule="nonzero"/></g><g clip-path="url(#id66)"><path fill="#f8a8c5" d="M 1339.5 758.65625 C 1342.105469 762.453125 1343.332031 765.277344 1342.835938 769.347656 C 1342.519531 771.984375 1341.71875 774.4375 1340.015625 776.507812 C 1337.3125 779.792969 1334 782.1875 1329.851562 783.210938 C 1327.667969 783.75 1322.8125 784.046875 1319.90625 782.660156 C 1317.621094 781.554688 1315.714844 779.980469 1314.191406 777.941406 C 1311.074219 773.78125 1311.242188 766.648438 1313.011719 762.894531 C 1314.019531 760.757812 1315.621094 759.144531 1317.445312 757.742188 C 1319.335938 756.292969 1321.398438 755.164062 1323.722656 754.578125 C 1325.023438 754.25 1329.15625 753.414062 1331.78125 754.085938 C 1334.535156 754.796875 1338.210938 756.777344 1339.5 758.65625 Z M 1339.5 758.65625 " fill-opacity="1" fill-rule="nonzero"/></g><g clip-path="url(#id67)"><path fill="#f8a8c5" d="M 1151.773438 604.097656 C 1154.378906 607.890625 1155.601562 610.714844 1155.105469 614.789062 C 1154.789062 617.425781 1153.992188 619.875 1152.285156 621.949219 C 1149.582031 625.230469 1146.269531 627.625 1142.121094 628.652344 C 1139.9375 629.1875 1135.082031 629.484375 1132.175781 628.101562 C 1129.890625 626.996094 1127.988281 625.421875 1126.464844 623.378906 C 1123.34375 619.21875 1123.511719 612.089844 1125.285156 608.332031 C 1126.289062 606.199219 1127.894531 604.582031 1129.71875 603.183594 C 1131.605469 601.730469 1133.671875 600.601562 1135.996094 600.019531 C 1137.292969 599.691406 1141.429688 598.855469 1144.054688 599.527344 C 1146.804688 600.238281 1150.480469 602.21875 1151.773438 604.097656 Z M 1151.773438 604.097656 " fill-opacity="1" fill-rule="nonzero"/></g><g clip-path="url(#id68)"><path fill="#f8a8c5" d="M 1323.390625 429.179688 C 1325.996094 432.972656 1327.21875 435.796875 1326.722656 439.871094 C 1326.40625 442.503906 1325.609375 444.957031 1323.90625 447.03125 C 1321.199219 450.3125 1317.886719 452.707031 1313.738281 453.730469 C 1311.554688 454.269531 1306.703125 454.566406 1303.792969 453.179688 C 1301.507812 452.078125 1299.605469 450.503906 1298.082031 448.460938 C 1294.960938 444.300781 1295.128906 437.171875 1296.902344 433.414062 C 1297.90625 431.277344 1299.511719 429.664062 1301.335938 428.261719 C 1303.226562 426.8125 1305.289062 425.683594 1307.613281 425.101562 C 1308.914062 424.769531 1313.046875 423.933594 1315.671875 424.609375 C 1318.421875 425.316406 1322.097656 427.300781 1323.390625 429.179688 Z M 1323.390625 429.179688 " fill-opacity="1" fill-rule="nonzero"/></g><g clip-path="url(#id69)"><path fill="#f8a8c5" d="M 1119.550781 275.722656 C 1122.152344 279.519531 1123.378906 282.34375 1122.882812 286.414062 C 1122.566406 289.050781 1121.769531 291.503906 1120.0625 293.574219 C 1117.359375 296.859375 1114.046875 299.253906 1109.898438 300.277344 C 1107.714844 300.816406 1102.859375 301.113281 1099.953125 299.726562 C 1097.667969 298.621094 1095.765625 297.046875 1094.242188 295.003906 C 1091.121094 290.847656 1091.289062 283.714844 1093.0625 279.957031 C 1094.066406 277.824219 1095.667969 276.210938 1097.496094 274.808594 C 1099.382812 273.359375 1101.445312 272.230469 1103.769531 271.644531 C 1105.070312 271.316406 1109.207031 270.480469 1111.828125 271.152344 C 1114.582031 271.863281 1118.257812 273.84375 1119.550781 275.722656 Z M 1119.550781 275.722656 " fill-opacity="1" fill-rule="nonzero"/></g><g clip-path="url(#id70)"><path fill="#f8a8c5" d="M 1426.664062 189.285156 C 1429.269531 193.082031 1430.492188 195.90625 1429.996094 199.976562 C 1429.679688 202.613281 1428.882812 205.066406 1427.175781 207.136719 C 1424.472656 210.421875 1421.160156 212.816406 1417.011719 213.839844 C 1414.828125 214.378906 1409.972656 214.675781 1407.066406 213.289062 C 1404.78125 212.183594 1402.878906 210.609375 1401.355469 208.566406 C 1398.234375 204.410156 1398.402344 197.277344 1400.175781 193.519531 C 1401.179688 191.386719 1402.785156 189.773438 1404.609375 188.371094 C 1406.496094 186.921875 1408.5625 185.792969 1410.882812 185.207031 C 1412.183594 184.878906 1416.320312 184.042969 1418.941406 184.714844 C 1421.695312 185.425781 1425.371094 187.40625 1426.664062 189.285156 Z M 1426.664062 189.285156 " fill-opacity="1" fill-rule="nonzero"/></g><g clip-path="url(#id71)"><path fill="#f8a8c5" d="M 1248.613281 89.21875 C 1251.21875 93.015625 1252.441406 95.839844 1251.945312 99.910156 C 1251.628906 102.546875 1250.832031 104.996094 1249.128906 107.070312 C 1246.421875 110.355469 1243.109375 112.75 1238.960938 113.773438 C 1236.78125 114.3125 1231.925781 114.609375 1229.015625 113.222656 C 1226.734375 112.117188 1224.828125 110.542969 1223.304688 108.5 C 1220.183594 104.34375 1220.351562 97.210938 1222.125 93.453125 C 1223.128906 91.320312 1224.734375 89.707031 1226.558594 88.304688 C 1228.449219 86.855469 1230.511719 85.726562 1232.835938 85.140625 C 1234.136719 84.8125 1238.269531 83.976562 1240.894531 84.648438 C 1243.648438 85.359375 1247.320312 87.339844 1248.613281 89.21875 Z M 1248.613281 89.21875 " fill-opacity="1" fill-rule="nonzero"/></g><g clip-path="url(#id72)"><g clip-path="url(#id73)"><g clip-path="url(#id74)"><path fill="#c197d2" d="M 1081.167969 1049.492188 C 1079.960938 1048.085938 1074.964844 1041.621094 1073.398438 1039.101562 C 1072.164062 1037.128906 1070.523438 1033.039062 1070.796875 1029.488281 C 1071.097656 1025.644531 1073.542969 1022.605469 1074.453125 1021.429688 C 1076.621094 1018.707031 1078.628906 1015.867188 1080.476562 1012.917969 C 1081.46875 1011.285156 1082.3125 1009.578125 1083.011719 1007.796875 C 1083.707031 1006.015625 1084.242188 1004.183594 1084.617188 1002.308594 C 1084.996094 1000.433594 1085.207031 998.539062 1085.25 996.625 C 1085.296875 994.710938 1085.175781 992.808594 1084.890625 990.917969 C 1083.5625 982.871094 1079.566406 976.0625 1074.632812 969.6875 C 1072.742188 967.242188 1070.773438 964.863281 1068.957031 962.359375 C 1067.601562 960.351562 1066.496094 958.210938 1065.640625 955.945312 C 1064.851562 953.027344 1064.703125 950.078125 1065.199219 947.09375 C 1066.605469 941.492188 1071.132812 935.214844 1071.972656 934.21875 C 1077.0625 928.183594 1077.023438 918.042969 1070.59375 912.863281 C 1064.328125 907.8125 1054.742188 907.789062 1049.277344 914.238281 C 1041.910156 922.976562 1036.039062 932.613281 1034.484375 944.601562 C 1033.96875 948.386719 1033.929688 952.175781 1034.363281 955.972656 C 1034.800781 959.769531 1035.695312 963.449219 1037.058594 967.019531 C 1039.363281 972.875 1042.867188 978.011719 1046.710938 982.917969 C 1048.332031 984.988281 1049.992188 987.035156 1051.542969 989.136719 C 1052.289062 990.160156 1054.375 993.492188 1054.34375 995.808594 C 1054.316406 998.121094 1051.738281 1001.421875 1051.042969 1002.296875 C 1048.964844 1004.925781 1047.058594 1007.671875 1045.320312 1010.535156 C 1043.597656 1013.546875 1042.3125 1016.734375 1041.464844 1020.097656 C 1040.617188 1023.460938 1040.238281 1026.875 1040.324219 1030.34375 C 1040.433594 1046.433594 1049.816406 1062.050781 1061.816406 1072.644531 C 1067.738281 1077.855469 1078.101562 1077.496094 1083.132812 1071.269531 C 1088.359375 1064.730469 1084.730469 1053.632812 1081.167969 1049.492188 Z M 1081.167969 1049.492188 " fill-opacity="1" fill-rule="nonzero"/></g></g></g></svg>